<svg height="16" viewBox="0 0 16 16" width="16" xmlns="http://www.w3.org/2000/svg"><path d="m12.1075139 11.4004071c1.1360624-.7056069 1.8924861-1.96467089 1.8924861-3.4004071 0-2.00317196-1.4724897-3.66242552-3.394119-3.95441072l1.394119-1.04558928-1.2756257-.95671924c2.9721294.35765378 5.2756257 2.88818131 5.2756257 5.95671924 0 1.98670188-.9655837 3.7478796-2.4530556 4.8398376l1.806609 1.806609-.7071068.7071068-13.99999999-14.00000001.70710678-.70710678 1.97807886 1.97807886c.8037287-.3997377 1.70979722-.62452547 2.66836775-.62452547h1v-2l4 3-4 3v-2h-1c-.39272699 0-.77223492.05659751-1.13081225.16208097zm-3.31969695-.4912698 2.86136745 2.8613674c-.523979.149468-1.077236.2294953-1.6491844.2294953v2l-4-3zm-5.67625775-5.67625776c-.68850883.71850351-1.1115592 1.69340763-1.1115592 2.76712046 0 2.209139 1.790861 4 4 4h.33333333l-1.33333333 1 1.33333333 1h-.33333333c-3.3137085 0-6-2.6862915-6-6 0-1.62599864.64679237-3.10093082 1.69713011-4.18154955z" fill="#293040"/></svg>