<svg height="16" viewBox="0 0 16 16" width="16" xmlns="http://www.w3.org/2000/svg"><path d="m10 14v2l-4-3 4-3v2c2.209139 0 4-1.790861 4-4 0-2.00317196-1.4724897-3.66242552-3.394119-3.95441072l1.394119-1.04558928-1.2756257-.95671924c2.9721294.35765378 5.2756257 2.88818131 5.2756257 5.95671924 0 3.3137085-2.6862915 6-6 6zm-3-10h-1c-2.209139 0-4 1.790861-4 4s1.790861 4 4 4h.33333333l-1.33333333 1 1.33333333 1h-.33333333c-3.3137085 0-6-2.6862915-6-6s2.6862915-6 6-6h1v-2l4 3-4 3z" fill="#293040"/></svg>